<svg width="54" height="40" viewBox="0 0 54 40" fill="none" xmlns="http://www.w3.org/2000/svg">
<path d="M2.73924 32.0267H4.57088C5.58182 32.0267 6.19055 32.5865 6.19055 33.5268C6.19055 34.4888 5.61986 35.0324 4.61436 35.0324H2.73924V32.0267ZM2.73924 35.8965H4.61436L6.29382 39H7.44064L5.6253 35.7444C6.60906 35.4346 7.20149 34.5867 7.20149 33.4942C7.20149 32.0811 6.21229 31.1571 4.70133 31.1571H1.76092V39H2.73924V35.8965ZM10.5244 34.0703C11.4158 34.0703 12.0082 34.7443 12.03 35.69H8.95911C9.01889 34.7497 9.6385 34.0703 10.5244 34.0703ZM12.0082 37.3803C11.8506 37.913 11.3234 38.2771 10.606 38.2771C9.58958 38.2771 8.95367 37.5651 8.95367 36.4835V36.4292H13.0083V36.0705C13.0083 34.3584 12.068 33.2496 10.5407 33.2496C8.98085 33.2496 7.98078 34.4399 7.98078 36.1955C7.98078 37.9728 8.96454 39.0978 10.5842 39.0978C11.818 39.0978 12.7746 38.3695 12.9376 37.3803H12.0082ZM13.9343 39H14.88V35.4563C14.88 34.6736 15.4235 34.0866 16.1736 34.0866C16.8747 34.0866 17.3313 34.5323 17.3313 35.2117V39H18.277V35.4074C18.277 34.641 18.8042 34.0866 19.5543 34.0866C20.2989 34.0866 20.7282 34.5432 20.7282 35.315V39H21.674V35.0976C21.674 33.9779 20.9511 33.2496 19.8314 33.2496C19.0379 33.2496 18.3748 33.6518 18.0596 34.3258H18.0378C17.7933 33.641 17.2226 33.2496 16.4508 33.2496C15.6899 33.2496 15.1137 33.6518 14.8474 34.2497H14.8257V33.3475H13.9343V39ZM22.8989 39H23.8446V33.3475H22.8989V39ZM23.3718 32.3963C23.6979 32.3963 23.9642 32.13 23.9642 31.8093C23.9642 31.4832 23.6979 31.2223 23.3718 31.2223C23.0511 31.2223 22.7848 31.4832 22.7848 31.8093C22.7848 32.13 23.0511 32.3963 23.3718 32.3963ZM25.0914 39H26.0371V35.6737C26.0371 34.7171 26.6186 34.0866 27.51 34.0866C28.3796 34.0866 28.809 34.5867 28.809 35.4998V39H29.7547V35.3313C29.7547 34.0486 29.0373 33.2496 27.7981 33.2496C26.923 33.2496 26.3197 33.641 26.0045 34.2497H25.9827V33.3475H25.0914V39ZM33.0722 39.0978C33.8875 39.0978 34.5343 38.6956 34.8984 38.0434H34.9147V39H35.8169V31.1571H34.8712V34.266H34.8495C34.5125 33.6464 33.8603 33.2496 33.0505 33.2496C31.6265 33.2496 30.6536 34.4019 30.6536 36.1737C30.6536 37.9456 31.6319 39.0978 33.0722 39.0978ZM33.2516 34.0812C34.2245 34.0812 34.8767 34.9128 34.8767 36.1737C34.8767 37.4401 34.2245 38.2663 33.2516 38.2663C32.2515 38.2663 31.621 37.4564 31.621 36.1737C31.621 34.8965 32.2515 34.0812 33.2516 34.0812ZM47.1914 39V31.1571H46.0554L43.3487 37.701H43.3053L40.5986 31.1571H39.4626V39H40.3757V32.9561H40.4138L42.9139 38.9456H43.7401L46.2402 32.9561H46.2783V39H47.1914ZM50.8024 34.0703C51.6937 34.0703 52.2862 34.7443 52.3079 35.69H49.2371C49.2968 34.7497 49.9165 34.0703 50.8024 34.0703ZM52.2862 37.3803C52.1286 37.913 51.6013 38.2771 50.8839 38.2771C49.8675 38.2771 49.2316 37.5651 49.2316 36.4835V36.4292H53.2862V36.0705C53.2862 34.3584 52.346 33.2496 50.8187 33.2496C49.2588 33.2496 48.2587 34.4399 48.2587 36.1955C48.2587 37.9728 49.2425 39.0978 50.8622 39.0978C52.0959 39.0978 53.0525 38.3695 53.2156 37.3803H52.2862Z" fill="white" fill-opacity="0.83"/>
<g clip-path="url(#clip0)">
<path d="M27 24C27.7956 24 28.5587 23.6839 29.1213 23.1213C29.6839 22.5587 30 21.7956 30 21H24C24 21.7956 24.3161 22.5587 24.8787 23.1213C25.4413 23.6839 26.2044 24 27 24ZM28.4925 1.64848C28.5134 1.43991 28.4904 1.22927 28.4249 1.03014C28.3595 0.831011 28.253 0.647816 28.1124 0.492368C27.9717 0.336921 27.8001 0.212673 27.6085 0.127638C27.4169 0.0426029 27.2096 -0.00133133 27 -0.00133133C26.7904 -0.00133133 26.5831 0.0426029 26.3915 0.127638C26.1999 0.212673 26.0283 0.336921 25.8876 0.492368C25.747 0.647816 25.6405 0.831011 25.5751 1.03014C25.5096 1.22927 25.4866 1.43991 25.5075 1.64848C23.8121 1.99333 22.2879 2.91352 21.1931 4.25323C20.0984 5.59294 19.5002 7.26984 19.5 8.99998C19.5 10.647 18.75 18 16.5 19.5H37.5C35.25 18 34.5 10.647 34.5 8.99998C34.5 5.36998 31.92 2.33998 28.4925 1.64848Z" fill="white"/>
</g>
<defs>
<clipPath id="clip0">
<rect width="24" height="24" fill="white" transform="translate(15)"/>
</clipPath>
</defs>
</svg>
