<svg width="28" height="40" viewBox="0 0 28 40" fill="none" xmlns="http://www.w3.org/2000/svg">
<path d="M0.385895 36.9475C0.478292 38.3335 1.63054 39.2357 3.29369 39.2357C5.09816 39.2357 6.22866 38.3389 6.22866 36.904C6.22866 35.779 5.57101 35.1539 3.94591 34.7463L3.1252 34.5289C2.05992 34.2517 1.62511 33.8984 1.62511 33.306C1.62511 32.5396 2.33167 32.0124 3.34804 32.0124C4.36985 32.0124 5.04924 32.5287 5.1362 33.3712H6.11453C6.07105 32.0559 4.94054 31.1319 3.38065 31.1319C1.75011 31.1319 0.608735 32.045 0.608735 33.3494C0.608735 34.4147 1.25008 35.0506 2.69583 35.4202L3.70133 35.6811C4.75574 35.9529 5.21773 36.3605 5.21773 37.0236C5.21773 37.7954 4.44594 38.3552 3.38609 38.3552C2.26645 38.3552 1.46205 37.7954 1.36965 36.9475H0.385895ZM7.24167 39.1053H8.18738V35.8116C8.18738 34.8332 8.76894 34.1919 9.70922 34.1919C10.5951 34.1919 11.0463 34.73 11.0463 35.6268V39.1053H11.992V35.4528C11.992 34.1919 11.2419 33.3549 10.0027 33.3549C9.14397 33.3549 8.52436 33.7245 8.20912 34.3549H8.18738V31.2624H7.24167V39.1053ZM15.0268 38.3987C14.3475 38.3987 13.8963 38.0454 13.8963 37.5073C13.8963 36.9747 14.3312 36.6377 15.0921 36.5888L16.603 36.4964V36.9584C16.603 37.7736 15.9182 38.3987 15.0268 38.3987ZM14.8149 39.2031C15.5758 39.2031 16.2932 38.7791 16.6302 38.1324H16.652V39.1053H17.5488V35.1974C17.5488 34.0723 16.7117 33.3549 15.3856 33.3549C14.0485 33.3549 13.2115 34.1049 13.1463 35.0833H14.0594C14.179 34.5289 14.6355 34.1865 15.3638 34.1865C16.1465 34.1865 16.603 34.5995 16.603 35.2898V35.7626L14.9834 35.855C13.6789 35.9311 12.9343 36.5399 12.9343 37.5073C12.9343 38.5237 13.6898 39.2031 14.8149 39.2031ZM18.7194 39.1053H19.6651V35.5833C19.6651 34.7843 20.1434 34.2571 20.8771 34.2571C21.1054 34.2571 21.3065 34.2843 21.3826 34.3115V33.3929C21.3065 33.3821 21.1652 33.3549 21.0021 33.3549C20.339 33.3549 19.8173 33.7516 19.6325 34.3767H19.6107V33.4527H18.7194V39.1053ZM24.1185 34.1756C25.0099 34.1756 25.6023 34.8495 25.6241 35.7953H22.5532C22.613 34.855 23.2326 34.1756 24.1185 34.1756ZM25.6023 37.4856C25.4447 38.0182 24.9175 38.3824 24.2001 38.3824C23.1837 38.3824 22.5478 37.6704 22.5478 36.5888V36.5344H26.6024V36.1757C26.6024 34.4636 25.6621 33.3549 24.1348 33.3549C22.575 33.3549 21.5749 34.5452 21.5749 36.3007C21.5749 38.078 22.5586 39.2031 24.1783 39.2031C25.4121 39.2031 26.3687 38.4748 26.5317 37.4856H25.6023Z" fill="white" fill-opacity="0.83"/>
<path d="M5 12C5 13.654 6.346 15 8 15C8.794 15 9.512 14.685 10.049 14.18L16.04 17.604C16.022 17.734 16 17.864 16 18C16 19.654 17.346 21 19 21C20.654 21 22 19.654 22 18C22 16.346 20.654 15 19 15C18.206 15 17.488 15.315 16.951 15.82L10.96 12.397C10.978 12.266 11 12.136 11 12C11 11.864 10.978 11.734 10.96 11.603L16.951 8.18C17.488 8.685 18.206 9 19 9C20.654 9 22 7.654 22 6C22 4.346 20.654 3 19 3C17.346 3 16 4.346 16 6C16 6.136 16.022 6.266 16.04 6.397L10.049 9.82C9.496 9.29468 8.76273 9.00123 8 9C6.346 9 5 10.346 5 12Z" fill="white"/>
</svg>
